<svg width="1440" height="107" viewBox="0 0 1440 107" fill="none" xmlns="http://www.w3.org/2000/svg">
<rect width="1440" height="107" fill="#2435A1"/>
<path d="M1211.45 63.2H1214.07L1216.1 66.168L1218.13 63.2H1220.79L1217.53 67.89L1221.06 73H1218.38L1216.1 69.752L1213.85 73H1211.23L1214.73 67.988L1211.45 63.2ZM1226.74 73.112C1226.11 73.112 1225.55 72.972 1225.08 72.692C1224.6 72.412 1224.23 71.9873 1223.96 71.418C1223.69 70.8393 1223.56 70.1113 1223.56 69.234C1223.56 68.3473 1223.69 67.6193 1223.94 67.05C1224.19 66.4807 1224.56 66.056 1225.03 65.776C1225.51 65.496 1226.08 65.356 1226.74 65.356C1227.45 65.356 1228.09 65.5193 1228.65 65.846C1229.22 66.1633 1229.66 66.6113 1229.99 67.19C1230.33 67.7687 1230.49 68.45 1230.49 69.234C1230.49 70.0273 1230.33 70.7133 1229.99 71.292C1229.66 71.8707 1229.22 72.3187 1228.65 72.636C1228.09 72.9533 1227.45 73.112 1226.74 73.112ZM1222.29 75.716V65.468H1224.38V67.008L1224.33 69.248L1224.47 71.474V75.716H1222.29ZM1226.36 71.32C1226.73 71.32 1227.05 71.236 1227.33 71.068C1227.62 70.9 1227.85 70.662 1228.02 70.354C1228.19 70.0367 1228.28 69.6633 1228.28 69.234C1228.28 68.7953 1228.19 68.422 1228.02 68.114C1227.85 67.806 1227.62 67.568 1227.33 67.4C1227.05 67.232 1226.73 67.148 1226.36 67.148C1226 67.148 1225.67 67.232 1225.38 67.4C1225.09 67.568 1224.87 67.806 1224.7 68.114C1224.53 68.422 1224.45 68.7953 1224.45 69.234C1224.45 69.6633 1224.53 70.0367 1224.7 70.354C1224.87 70.662 1225.09 70.9 1225.38 71.068C1225.67 71.236 1226 71.32 1226.36 71.32ZM1235.75 73.112C1234.95 73.112 1234.24 72.944 1233.61 72.608C1232.99 72.272 1232.5 71.8147 1232.14 71.236C1231.79 70.648 1231.61 69.9807 1231.61 69.234C1231.61 68.478 1231.79 67.8107 1232.14 67.232C1232.5 66.644 1232.99 66.1867 1233.61 65.86C1234.24 65.524 1234.95 65.356 1235.75 65.356C1236.55 65.356 1237.26 65.524 1237.88 65.86C1238.51 66.1867 1239 66.6393 1239.35 67.218C1239.71 67.7967 1239.88 68.4687 1239.88 69.234C1239.88 69.9807 1239.71 70.648 1239.35 71.236C1239 71.8147 1238.51 72.272 1237.88 72.608C1237.26 72.944 1236.55 73.112 1235.75 73.112ZM1235.75 71.32C1236.12 71.32 1236.44 71.236 1236.73 71.068C1237.02 70.9 1237.25 70.662 1237.42 70.354C1237.59 70.0367 1237.67 69.6633 1237.67 69.234C1237.67 68.7953 1237.59 68.422 1237.42 68.114C1237.25 67.806 1237.02 67.568 1236.73 67.4C1236.44 67.232 1236.12 67.148 1235.75 67.148C1235.39 67.148 1235.06 67.232 1234.77 67.4C1234.48 67.568 1234.25 67.806 1234.07 68.114C1233.9 68.422 1233.82 68.7953 1233.82 69.234C1233.82 69.6633 1233.9 70.0367 1234.07 70.354C1234.25 70.662 1234.48 70.9 1234.77 71.068C1235.06 71.236 1235.39 71.32 1235.75 71.32ZM1241.58 73V65.468H1243.75V68.408H1247.03V65.468H1249.21V73H1247.03V70.186H1243.75V73H1241.58ZM1255.03 73.112C1254.23 73.112 1253.52 72.944 1252.89 72.608C1252.28 72.272 1251.79 71.8147 1251.42 71.236C1251.07 70.648 1250.89 69.9807 1250.89 69.234C1250.89 68.478 1251.07 67.8107 1251.42 67.232C1251.79 66.644 1252.28 66.1867 1252.89 65.86C1253.52 65.524 1254.23 65.356 1255.03 65.356C1255.83 65.356 1256.54 65.524 1257.16 65.86C1257.79 66.1867 1258.28 66.6393 1258.63 67.218C1258.99 67.7967 1259.16 68.4687 1259.16 69.234C1259.16 69.9807 1258.99 70.648 1258.63 71.236C1258.28 71.8147 1257.79 72.272 1257.16 72.608C1256.54 72.944 1255.83 73.112 1255.03 73.112ZM1255.03 71.32C1255.4 71.32 1255.72 71.236 1256.01 71.068C1256.3 70.9 1256.53 70.662 1256.7 70.354C1256.87 70.0367 1256.95 69.6633 1256.95 69.234C1256.95 68.7953 1256.87 68.422 1256.7 68.114C1256.53 67.806 1256.3 67.568 1256.01 67.4C1255.72 67.232 1255.4 67.148 1255.03 67.148C1254.67 67.148 1254.34 67.232 1254.05 67.4C1253.76 67.568 1253.53 67.806 1253.35 68.114C1253.19 68.422 1253.1 68.7953 1253.1 69.234C1253.1 69.6633 1253.19 70.0367 1253.35 70.354C1253.53 70.662 1253.76 70.9 1254.05 71.068C1254.34 71.236 1254.67 71.32 1255.03 71.32ZM1259.8 72.986L1259.92 71.194C1259.97 71.2033 1260.03 71.2127 1260.08 71.222C1260.14 71.222 1260.19 71.222 1260.24 71.222C1260.5 71.222 1260.71 71.1473 1260.85 70.998C1261 70.8487 1261.12 70.648 1261.19 70.396C1261.27 70.1347 1261.32 69.8407 1261.34 69.514C1261.38 69.1873 1261.41 68.8467 1261.43 68.492L1261.54 65.468H1267.98V73H1265.8V66.728L1266.29 67.26H1262.98L1263.44 66.7L1263.35 68.59C1263.32 69.262 1263.26 69.878 1263.18 70.438C1263.1 70.998 1262.98 71.4833 1262.8 71.894C1262.62 72.2953 1262.39 72.608 1262.09 72.832C1261.79 73.0467 1261.41 73.154 1260.94 73.154C1260.77 73.154 1260.59 73.14 1260.41 73.112C1260.22 73.084 1260.02 73.042 1259.8 72.986ZM1273.81 73.112C1273.01 73.112 1272.29 72.944 1271.67 72.608C1271.05 72.272 1270.56 71.8147 1270.2 71.236C1269.84 70.648 1269.66 69.9807 1269.66 69.234C1269.66 68.478 1269.84 67.8107 1270.2 67.232C1270.56 66.644 1271.05 66.1867 1271.67 65.86C1272.29 65.524 1273.01 65.356 1273.81 65.356C1274.6 65.356 1275.31 65.524 1275.94 65.86C1276.56 66.1867 1277.05 66.6393 1277.41 67.218C1277.76 67.7967 1277.94 68.4687 1277.94 69.234C1277.94 69.9807 1277.76 70.648 1277.41 71.236C1277.05 71.8147 1276.56 72.272 1275.94 72.608C1275.31 72.944 1274.6 73.112 1273.81 73.112ZM1273.81 71.32C1274.17 71.32 1274.5 71.236 1274.79 71.068C1275.08 70.9 1275.31 70.662 1275.47 70.354C1275.64 70.0367 1275.73 69.6633 1275.73 69.234C1275.73 68.7953 1275.64 68.422 1275.47 68.114C1275.31 67.806 1275.08 67.568 1274.79 67.4C1274.5 67.232 1274.17 67.148 1273.81 67.148C1273.44 67.148 1273.12 67.232 1272.83 67.4C1272.54 67.568 1272.31 67.806 1272.13 68.114C1271.96 68.422 1271.88 68.7953 1271.88 69.234C1271.88 69.6633 1271.96 70.0367 1272.13 70.354C1272.31 70.662 1272.54 70.9 1272.83 71.068C1273.12 71.236 1273.44 71.32 1273.81 71.32ZM1279.64 73V65.468H1285.67V67.26H1281.32L1281.81 66.784V73H1279.64ZM1287.03 73V65.468H1289.2V69.948L1292.87 65.468H1294.87V73H1292.7V68.52L1289.05 73H1287.03ZM1301.92 73V70.494L1302.23 70.844H1300.14C1299.06 70.844 1298.21 70.62 1297.59 70.172C1296.98 69.724 1296.67 69.08 1296.67 68.24C1296.67 67.344 1296.99 66.658 1297.63 66.182C1298.29 65.706 1299.16 65.468 1300.27 65.468H1303.86V73H1301.92ZM1296.56 73L1298.56 70.13H1300.78L1298.88 73H1296.56ZM1301.92 69.822V66.686L1302.23 67.246H1300.31C1299.86 67.246 1299.51 67.33 1299.26 67.498C1299.02 67.666 1298.89 67.9367 1298.89 68.31C1298.89 69.0287 1299.36 69.388 1300.28 69.388H1302.23L1301.92 69.822Z" fill="white"/>
<path d="M968.971 73L973.339 63.2H975.579L979.961 73H977.581L973.997 64.348H974.893L971.295 73H968.971ZM971.155 70.9L971.757 69.178H976.797L977.413 70.9H971.155ZM986.627 73L984.107 69.43L985.885 68.38L989.203 73H986.627ZM981.293 73V65.468H983.477V73H981.293ZM982.833 70.144V68.394H985.465V70.144H982.833ZM986.095 69.486L984.051 69.262L986.697 65.468H989.021L986.095 69.486ZM995.809 73L993.289 69.43L995.067 68.38L998.385 73H995.809ZM990.475 73V65.468H992.659V73H990.475ZM992.015 70.144V68.394H994.647V70.144H992.015ZM995.277 69.486L993.233 69.262L995.879 65.468H998.203L995.277 69.486ZM1004.1 73.112C1003.46 73.112 1002.91 72.972 1002.43 72.692C1001.95 72.412 1001.58 71.9873 1001.31 71.418C1001.05 70.8393 1000.92 70.1113 1000.92 69.234C1000.92 68.3473 1001.04 67.6193 1001.3 67.05C1001.55 66.4807 1001.91 66.056 1002.39 65.776C1002.86 65.496 1003.43 65.356 1004.1 65.356C1004.8 65.356 1005.44 65.5193 1006 65.846C1006.57 66.1633 1007.02 66.6113 1007.34 67.19C1007.68 67.7687 1007.85 68.45 1007.85 69.234C1007.85 70.0273 1007.68 70.7133 1007.34 71.292C1007.02 71.8707 1006.57 72.3187 1006 72.636C1005.44 72.9533 1004.8 73.112 1004.1 73.112ZM999.643 75.716V65.468H1001.73V67.008L1001.69 69.248L1001.83 71.474V75.716H999.643ZM1003.72 71.32C1004.08 71.32 1004.4 71.236 1004.68 71.068C1004.97 70.9 1005.2 70.662 1005.37 70.354C1005.55 70.0367 1005.64 69.6633 1005.64 69.234C1005.64 68.7953 1005.55 68.422 1005.37 68.114C1005.2 67.806 1004.97 67.568 1004.68 67.4C1004.4 67.232 1004.08 67.148 1003.72 67.148C1003.35 67.148 1003.03 67.232 1002.74 67.4C1002.45 67.568 1002.22 67.806 1002.05 68.114C1001.88 68.422 1001.8 68.7953 1001.8 69.234C1001.8 69.6633 1001.88 70.0367 1002.05 70.354C1002.22 70.662 1002.45 70.9 1002.74 71.068C1003.03 71.236 1003.35 71.32 1003.72 71.32ZM1013.26 73.112C1012.4 73.112 1011.65 72.944 1010.99 72.608C1010.35 72.272 1009.85 71.8147 1009.49 71.236C1009.14 70.648 1008.96 69.9807 1008.96 69.234C1008.96 68.478 1009.13 67.8107 1009.48 67.232C1009.83 66.644 1010.32 66.1867 1010.92 65.86C1011.53 65.524 1012.21 65.356 1012.98 65.356C1013.72 65.356 1014.38 65.5147 1014.97 65.832C1015.57 66.14 1016.04 66.588 1016.38 67.176C1016.73 67.7547 1016.9 68.45 1016.9 69.262C1016.9 69.346 1016.9 69.444 1016.89 69.556C1016.88 69.6587 1016.87 69.7567 1016.86 69.85H1010.74V68.576H1015.71L1014.87 68.954C1014.87 68.562 1014.79 68.2213 1014.63 67.932C1014.47 67.6427 1014.25 67.4187 1013.97 67.26C1013.69 67.092 1013.37 67.008 1012.99 67.008C1012.62 67.008 1012.29 67.092 1012 67.26C1011.72 67.4187 1011.5 67.6473 1011.34 67.946C1011.18 68.2353 1011.1 68.5807 1011.1 68.982V69.318C1011.1 69.7287 1011.19 70.0927 1011.37 70.41C1011.56 70.718 1011.81 70.956 1012.14 71.124C1012.48 71.2827 1012.87 71.362 1013.32 71.362C1013.72 71.362 1014.07 71.3013 1014.37 71.18C1014.67 71.0587 1014.95 70.8767 1015.21 70.634L1016.37 71.894C1016.02 72.286 1015.59 72.5893 1015.07 72.804C1014.54 73.0093 1013.94 73.112 1013.26 73.112ZM1023.89 72.02V67.26H1021.42L1021.38 68.226C1021.36 68.6273 1021.34 69.01 1021.31 69.374C1021.28 69.738 1021.23 70.0693 1021.14 70.368C1021.07 70.6573 1020.96 70.9047 1020.81 71.11C1020.66 71.306 1020.46 71.4413 1020.2 71.516L1018.05 71.208C1018.32 71.208 1018.54 71.1287 1018.71 70.97C1018.87 70.802 1019 70.5733 1019.1 70.284C1019.19 69.9853 1019.26 69.6493 1019.31 69.276C1019.35 68.8933 1019.39 68.492 1019.41 68.072L1019.5 65.468H1026.07V72.02H1023.89ZM1017.8 74.624V71.208H1027.15V74.624H1025.12V73H1019.83V74.624H1017.8ZM1028.72 73V65.468H1030.89V69.948L1034.56 65.468H1036.56V73H1034.39V68.52L1030.74 73H1028.72ZM1040.47 73V66.756L1040.96 67.26H1037.92V65.468H1045.19V67.26H1042.15L1042.64 66.756V73H1040.47ZM1051.06 73V71.53L1050.92 71.208V68.576C1050.92 68.1093 1050.78 67.7453 1050.49 67.484C1050.21 67.2227 1049.77 67.092 1049.19 67.092C1048.78 67.092 1048.39 67.1573 1048 67.288C1047.61 67.4093 1047.29 67.5773 1047.02 67.792L1046.23 66.266C1046.64 65.9767 1047.14 65.7527 1047.72 65.594C1048.29 65.4353 1048.88 65.356 1049.48 65.356C1050.63 65.356 1051.52 65.6267 1052.15 66.168C1052.79 66.7093 1053.11 67.554 1053.11 68.702V73H1051.06ZM1048.77 73.112C1048.18 73.112 1047.67 73.014 1047.25 72.818C1046.83 72.6127 1046.51 72.3373 1046.29 71.992C1046.06 71.6467 1045.95 71.2593 1045.95 70.83C1045.95 70.382 1046.06 69.99 1046.27 69.654C1046.5 69.318 1046.85 69.0567 1047.32 68.87C1047.8 68.674 1048.42 68.576 1049.19 68.576H1051.19V69.85H1049.42C1048.91 69.85 1048.56 69.934 1048.36 70.102C1048.17 70.27 1048.08 70.48 1048.08 70.732C1048.08 71.012 1048.19 71.236 1048.4 71.404C1048.63 71.5627 1048.93 71.642 1049.31 71.642C1049.68 71.642 1050 71.558 1050.29 71.39C1050.58 71.2127 1050.79 70.956 1050.92 70.62L1051.26 71.628C1051.1 72.1133 1050.81 72.482 1050.39 72.734C1049.97 72.986 1049.43 73.112 1048.77 73.112ZM1055.2 73V65.468H1057.37V71.208H1060.41V65.468H1062.6V73H1055.2ZM1061.66 74.624V72.972L1062.16 73H1060.41V71.208H1063.69V74.624H1061.66ZM1065.26 73V65.468H1067.43V69.948L1071.1 65.468H1073.1V73H1070.93V68.52L1067.28 73H1065.26ZM1080.15 73V70.494L1080.45 70.844H1078.37C1077.29 70.844 1076.44 70.62 1075.82 70.172C1075.2 69.724 1074.9 69.08 1074.9 68.24C1074.9 67.344 1075.22 66.658 1075.86 66.182C1076.52 65.706 1077.39 65.468 1078.49 65.468H1082.09V73H1080.15ZM1074.78 73L1076.79 70.13H1079.01L1077.11 73H1074.78ZM1080.15 69.822V66.686L1080.45 67.246H1078.54C1078.09 67.246 1077.74 67.33 1077.49 67.498C1077.24 67.666 1077.12 67.9367 1077.12 68.31C1077.12 69.0287 1077.58 69.388 1078.51 69.388H1080.45L1080.15 69.822Z" fill="white"/>
<path fill-rule="evenodd" clip-rule="evenodd" d="M1097.78 65.2197C1098.07 65.5126 1098.07 65.9874 1097.78 66.2803L1093.78 70.2803C1093.49 70.5732 1093.01 70.5732 1092.72 70.2803L1088.72 66.2803C1088.43 65.9874 1088.43 65.5126 1088.72 65.2197C1089.01 64.9268 1089.49 64.9268 1089.78 65.2197L1093.25 68.6893L1096.72 65.2197C1097.01 64.9268 1097.49 64.9268 1097.78 65.2197Z" fill="white"/>
<path d="M698.195 63.2H700.463V73H698.195V63.2ZM693.743 73H691.475V63.2H693.743V73ZM698.363 68.982H693.575V67.064H698.363V68.982ZM706.632 73.112C705.774 73.112 705.018 72.944 704.364 72.608C703.72 72.272 703.221 71.8147 702.866 71.236C702.512 70.648 702.334 69.9807 702.334 69.234C702.334 68.478 702.507 67.8107 702.852 67.232C703.207 66.644 703.688 66.1867 704.294 65.86C704.901 65.524 705.587 65.356 706.352 65.356C707.09 65.356 707.752 65.5147 708.34 65.832C708.938 66.14 709.409 66.588 709.754 67.176C710.1 67.7547 710.272 68.45 710.272 69.262C710.272 69.346 710.268 69.444 710.258 69.556C710.249 69.6587 710.24 69.7567 710.23 69.85H704.112V68.576H709.082L708.242 68.954C708.242 68.562 708.163 68.2213 708.004 67.932C707.846 67.6427 707.626 67.4187 707.346 67.26C707.066 67.092 706.74 67.008 706.366 67.008C705.993 67.008 705.662 67.092 705.372 67.26C705.092 67.4187 704.873 67.6473 704.714 67.946C704.556 68.2353 704.476 68.5807 704.476 68.982V69.318C704.476 69.7287 704.565 70.0927 704.742 70.41C704.929 70.718 705.186 70.956 705.512 71.124C705.848 71.2827 706.24 71.362 706.688 71.362C707.09 71.362 707.44 71.3013 707.738 71.18C708.046 71.0587 708.326 70.8767 708.578 70.634L709.74 71.894C709.395 72.286 708.961 72.5893 708.438 72.804C707.916 73.0093 707.314 73.112 706.632 73.112ZM712.146 73V65.468H718.18V67.26H713.826L714.316 66.784V73H712.146ZM719.538 73V65.468H721.708V69.948L725.376 65.468H727.378V73H725.208V68.52L721.554 73H719.538ZM732.157 73.14C732.866 73.14 733.501 73.0467 734.061 72.86C734.63 72.664 735.078 72.3887 735.405 72.034C735.741 71.67 735.909 71.2453 735.909 70.76C735.909 70.1907 735.671 69.7427 735.195 69.416C734.719 69.08 734.065 68.912 733.235 68.912L733.179 69.346C733.655 69.346 734.084 69.2667 734.467 69.108C734.849 68.94 735.148 68.7113 735.363 68.422C735.587 68.1327 735.699 67.806 735.699 67.442C735.699 66.9847 735.535 66.5973 735.209 66.28C734.891 65.9627 734.453 65.72 733.893 65.552C733.333 65.384 732.703 65.3093 732.003 65.328C731.527 65.3373 731.046 65.4027 730.561 65.524C730.075 65.6453 729.585 65.8087 729.091 66.014L729.623 67.526C730.043 67.358 730.453 67.232 730.855 67.148C731.256 67.0547 731.643 67.008 732.017 67.008C732.343 67.008 732.614 67.0407 732.829 67.106C733.043 67.162 733.207 67.246 733.319 67.358C733.431 67.47 733.487 67.6053 733.487 67.764C733.487 67.9133 733.44 68.044 733.347 68.156C733.263 68.2587 733.132 68.338 732.955 68.394C732.777 68.45 732.563 68.478 732.311 68.478H730.953V69.836H732.493C732.885 69.836 733.183 69.9013 733.389 70.032C733.594 70.1533 733.697 70.3353 733.697 70.578C733.697 70.7647 733.631 70.9233 733.501 71.054C733.37 71.1847 733.179 71.2873 732.927 71.362C732.684 71.4273 732.395 71.46 732.059 71.46C731.592 71.46 731.13 71.4133 730.673 71.32C730.225 71.2173 729.809 71.0727 729.427 70.886L728.839 72.412C729.324 72.6547 729.851 72.8367 730.421 72.958C730.999 73.0793 731.578 73.14 732.157 73.14ZM737.67 73V65.468H743.704V67.26H739.35L739.84 66.784V73H737.67ZM745.062 73V65.468H747.232V69.948L750.9 65.468H752.902V73H750.732V68.52L747.078 73H745.062ZM759.366 73V65.468H761.648L764.49 70.62H763.58L766.618 65.468H768.662L768.69 73H766.716V67.708L767.052 67.932L764.462 72.272H763.538L760.934 67.778L761.34 67.68V73H759.366ZM775.49 73V71.53L775.35 71.208V68.576C775.35 68.1093 775.205 67.7453 774.916 67.484C774.636 67.2227 774.202 67.092 773.614 67.092C773.213 67.092 772.816 67.1573 772.424 67.288C772.041 67.4093 771.715 67.5773 771.444 67.792L770.66 66.266C771.071 65.9767 771.565 65.7527 772.144 65.594C772.723 65.4353 773.311 65.356 773.908 65.356C775.056 65.356 775.947 65.6267 776.582 66.168C777.217 66.7093 777.534 67.554 777.534 68.702V73H775.49ZM773.194 73.112C772.606 73.112 772.102 73.014 771.682 72.818C771.262 72.6127 770.94 72.3373 770.716 71.992C770.492 71.6467 770.38 71.2593 770.38 70.83C770.38 70.382 770.487 69.99 770.702 69.654C770.926 69.318 771.276 69.0567 771.752 68.87C772.228 68.674 772.849 68.576 773.614 68.576H775.616V69.85H773.852C773.339 69.85 772.984 69.934 772.788 70.102C772.601 70.27 772.508 70.48 772.508 70.732C772.508 71.012 772.615 71.236 772.83 71.404C773.054 71.5627 773.357 71.642 773.74 71.642C774.104 71.642 774.431 71.558 774.72 71.39C775.009 71.2127 775.219 70.956 775.35 70.62L775.686 71.628C775.527 72.1133 775.238 72.482 774.818 72.734C774.398 72.986 773.857 73.112 773.194 73.112ZM784.139 73V71.53L783.999 71.208V68.576C783.999 68.1093 783.854 67.7453 783.565 67.484C783.285 67.2227 782.851 67.092 782.263 67.092C781.862 67.092 781.465 67.1573 781.073 67.288C780.69 67.4093 780.364 67.5773 780.093 67.792L779.309 66.266C779.72 65.9767 780.214 65.7527 780.793 65.594C781.372 65.4353 781.96 65.356 782.557 65.356C783.705 65.356 784.596 65.6267 785.231 66.168C785.866 66.7093 786.183 67.554 786.183 68.702V73H784.139ZM781.843 73.112C781.255 73.112 780.751 73.014 780.331 72.818C779.911 72.6127 779.589 72.3373 779.365 71.992C779.141 71.6467 779.029 71.2593 779.029 70.83C779.029 70.382 779.136 69.99 779.351 69.654C779.575 69.318 779.925 69.0567 780.401 68.87C780.877 68.674 781.498 68.576 782.263 68.576H784.265V69.85H782.501C781.988 69.85 781.633 69.934 781.437 70.102C781.25 70.27 781.157 70.48 781.157 70.732C781.157 71.012 781.264 71.236 781.479 71.404C781.703 71.5627 782.006 71.642 782.389 71.642C782.753 71.642 783.08 71.558 783.369 71.39C783.658 71.2127 783.868 70.956 783.999 70.62L784.335 71.628C784.176 72.1133 783.887 72.482 783.467 72.734C783.047 72.986 782.506 73.112 781.843 73.112ZM787.328 72.986L787.44 71.194C787.496 71.2033 787.552 71.2127 787.608 71.222C787.664 71.222 787.716 71.222 787.762 71.222C788.024 71.222 788.229 71.1473 788.378 70.998C788.528 70.8487 788.64 70.648 788.714 70.396C788.789 70.1347 788.84 69.8407 788.868 69.514C788.906 69.1873 788.934 68.8467 788.952 68.492L789.064 65.468H795.504V73H793.32V66.728L793.81 67.26H790.506L790.968 66.7L790.87 68.59C790.842 69.262 790.786 69.878 790.702 70.438C790.628 70.998 790.502 71.4833 790.324 71.894C790.147 72.2953 789.909 72.608 789.61 72.832C789.312 73.0467 788.929 73.154 788.462 73.154C788.294 73.154 788.117 73.14 787.93 73.112C787.744 73.084 787.543 73.042 787.328 72.986ZM805.56 73V65.468H807.73V73H805.56ZM801.766 67.876C802.756 67.8853 803.498 68.1093 803.992 68.548C804.496 68.9773 804.748 69.5887 804.748 70.382C804.748 71.2127 804.464 71.8613 803.894 72.328C803.325 72.7853 802.518 73.014 801.472 73.014L797.804 73V65.468H799.974V67.876H801.766ZM801.276 71.46C801.696 71.4693 802.018 71.3807 802.242 71.194C802.466 71.0073 802.578 70.7273 802.578 70.354C802.578 69.9807 802.466 69.7147 802.242 69.556C802.018 69.388 801.696 69.2993 801.276 69.29L799.974 69.276V71.46H801.276ZM810.036 73V65.468H812.318L815.16 70.62H814.25L817.288 65.468H819.332L819.36 73H817.386V67.708L817.722 67.932L815.132 72.272H814.208L811.604 67.778L812.01 67.68V73H810.036ZM826.16 73V71.53L826.02 71.208V68.576C826.02 68.1093 825.875 67.7453 825.586 67.484C825.306 67.2227 824.872 67.092 824.284 67.092C823.882 67.092 823.486 67.1573 823.094 67.288C822.711 67.4093 822.384 67.5773 822.114 67.792L821.33 66.266C821.74 65.9767 822.235 65.7527 822.814 65.594C823.392 65.4353 823.98 65.356 824.578 65.356C825.726 65.356 826.617 65.6267 827.252 66.168C827.886 66.7093 828.204 67.554 828.204 68.702V73H826.16ZM823.864 73.112C823.276 73.112 822.772 73.014 822.352 72.818C821.932 72.6127 821.61 72.3373 821.386 71.992C821.162 71.6467 821.05 71.2593 821.05 70.83C821.05 70.382 821.157 69.99 821.372 69.654C821.596 69.318 821.946 69.0567 822.422 68.87C822.898 68.674 823.518 68.576 824.284 68.576H826.286V69.85H824.522C824.008 69.85 823.654 69.934 823.458 70.102C823.271 70.27 823.178 70.48 823.178 70.732C823.178 71.012 823.285 71.236 823.5 71.404C823.724 71.5627 824.027 71.642 824.41 71.642C824.774 71.642 825.1 71.558 825.39 71.39C825.679 71.2127 825.889 70.956 826.02 70.62L826.356 71.628C826.197 72.1133 825.908 72.482 825.488 72.734C825.068 72.986 824.526 73.112 823.864 73.112ZM831.911 73V66.756L832.401 67.26H829.363V65.468H836.629V67.26H833.591L834.081 66.756V73H831.911Z" fill="white"/>
<path fill-rule="evenodd" clip-rule="evenodd" d="M855.28 65.2197C855.573 65.5126 855.573 65.9874 855.28 66.2803L851.28 70.2803C850.987 70.5732 850.513 70.5732 850.22 70.2803L846.22 66.2803C845.927 65.9874 845.927 65.5126 846.22 65.2197C846.513 64.9268 846.987 64.9268 847.28 65.2197L850.75 68.6893L854.22 65.2197C854.513 64.9268 854.987 64.9268 855.28 65.2197Z" fill="white"/>
<path d="M146.128 89.288C144.8 89.288 143.568 89.072 142.432 88.64C141.312 88.208 140.336 87.6 139.504 86.816C138.688 86.032 138.048 85.112 137.584 84.056C137.136 83 136.912 81.848 136.912 80.6C136.912 79.352 137.136 78.2 137.584 77.144C138.048 76.088 138.696 75.168 139.528 74.384C140.36 73.6 141.336 72.992 142.456 72.56C143.576 72.128 144.792 71.912 146.104 71.912C147.432 71.912 148.648 72.128 149.752 72.56C150.872 72.992 151.84 73.6 152.656 74.384C153.488 75.168 154.136 76.088 154.6 77.144C155.064 78.184 155.296 79.336 155.296 80.6C155.296 81.848 155.064 83.008 154.6 84.08C154.136 85.136 153.488 86.056 152.656 86.84C151.84 87.608 150.872 88.208 149.752 88.64C148.648 89.072 147.44 89.288 146.128 89.288ZM146.104 85.976C146.856 85.976 147.544 85.848 148.168 85.592C148.808 85.336 149.368 84.968 149.848 84.488C150.328 84.008 150.696 83.44 150.952 82.784C151.224 82.128 151.36 81.4 151.36 80.6C151.36 79.8 151.224 79.072 150.952 78.416C150.696 77.76 150.328 77.192 149.848 76.712C149.384 76.232 148.832 75.864 148.192 75.608C147.552 75.352 146.856 75.224 146.104 75.224C145.352 75.224 144.656 75.352 144.016 75.608C143.392 75.864 142.84 76.232 142.36 76.712C141.88 77.192 141.504 77.76 141.232 78.416C140.976 79.072 140.848 79.8 140.848 80.6C140.848 81.384 140.976 82.112 141.232 82.784C141.504 83.44 141.872 84.008 142.336 84.488C142.816 84.968 143.376 85.336 144.016 85.592C144.656 85.848 145.352 85.976 146.104 85.976ZM165.711 89.192C164.623 89.192 163.671 88.952 162.855 88.472C162.039 87.992 161.399 87.264 160.935 86.288C160.487 85.296 160.263 84.048 160.263 82.544C160.263 81.024 160.479 79.776 160.911 78.8C161.343 77.824 161.967 77.096 162.783 76.616C163.599 76.136 164.575 75.896 165.711 75.896C166.927 75.896 168.015 76.176 168.975 76.736C169.951 77.28 170.719 78.048 171.279 79.04C171.855 80.032 172.143 81.2 172.143 82.544C172.143 83.904 171.855 85.08 171.279 86.072C170.719 87.064 169.951 87.832 168.975 88.376C168.015 88.92 166.927 89.192 165.711 89.192ZM158.079 93.656V76.088H161.655V78.728L161.583 82.568L161.823 86.384V93.656H158.079ZM165.063 86.12C165.687 86.12 166.239 85.976 166.719 85.688C167.215 85.4 167.607 84.992 167.895 84.464C168.199 83.92 168.351 83.28 168.351 82.544C168.351 81.792 168.199 81.152 167.895 80.624C167.607 80.096 167.215 79.688 166.719 79.4C166.239 79.112 165.687 78.968 165.063 78.968C164.439 78.968 163.879 79.112 163.383 79.4C162.887 79.688 162.495 80.096 162.207 80.624C161.919 81.152 161.775 81.792 161.775 82.544C161.775 83.28 161.919 83.92 162.207 84.464C162.495 84.992 162.887 85.4 163.383 85.688C163.879 85.976 164.439 86.12 165.063 86.12ZM177.158 89V78.296L177.998 79.16H172.79V76.088H185.246V79.16H180.038L180.878 78.296V89H177.158ZM192.851 89.192C191.475 89.192 190.251 88.904 189.179 88.328C188.123 87.752 187.283 86.968 186.659 85.976C186.051 84.968 185.747 83.824 185.747 82.544C185.747 81.248 186.051 80.104 186.659 79.112C187.283 78.104 188.123 77.32 189.179 76.76C190.251 76.184 191.475 75.896 192.851 75.896C194.211 75.896 195.427 76.184 196.499 76.76C197.571 77.32 198.411 78.096 199.019 79.088C199.627 80.08 199.931 81.232 199.931 82.544C199.931 83.824 199.627 84.968 199.019 85.976C198.411 86.968 197.571 87.752 196.499 88.328C195.427 88.904 194.211 89.192 192.851 89.192ZM192.851 86.12C193.475 86.12 194.035 85.976 194.531 85.688C195.027 85.4 195.419 84.992 195.707 84.464C195.995 83.92 196.139 83.28 196.139 82.544C196.139 81.792 195.995 81.152 195.707 80.624C195.419 80.096 195.027 79.688 194.531 79.4C194.035 79.112 193.475 78.968 192.851 78.968C192.227 78.968 191.667 79.112 191.171 79.4C190.675 79.688 190.275 80.096 189.971 80.624C189.683 81.152 189.539 81.792 189.539 82.544C189.539 83.28 189.683 83.92 189.971 84.464C190.275 84.992 190.675 85.4 191.171 85.688C191.667 85.976 192.227 86.12 192.851 86.12ZM209.503 89V76.088H213.415L218.287 84.92H216.727L221.935 76.088H225.439L225.487 89H222.103V79.928L222.679 80.312L218.239 87.752H216.655L212.191 80.048L212.887 79.88V89H209.503ZM235.485 89.192C234.013 89.192 232.717 88.904 231.597 88.328C230.493 87.752 229.637 86.968 229.029 85.976C228.421 84.968 228.117 83.824 228.117 82.544C228.117 81.248 228.413 80.104 229.005 79.112C229.613 78.104 230.437 77.32 231.477 76.76C232.517 76.184 233.693 75.896 235.005 75.896C236.269 75.896 237.405 76.168 238.413 76.712C239.437 77.24 240.245 78.008 240.837 79.016C241.429 80.008 241.725 81.2 241.725 82.592C241.725 82.736 241.717 82.904 241.701 83.096C241.685 83.272 241.669 83.44 241.653 83.6H231.165V81.416H239.685L238.245 82.064C238.245 81.392 238.109 80.808 237.837 80.312C237.565 79.816 237.189 79.432 236.709 79.16C236.229 78.872 235.669 78.728 235.029 78.728C234.389 78.728 233.821 78.872 233.325 79.16C232.845 79.432 232.469 79.824 232.197 80.336C231.925 80.832 231.789 81.424 231.789 82.112V82.688C231.789 83.392 231.941 84.016 232.245 84.56C232.565 85.088 233.005 85.496 233.565 85.784C234.141 86.056 234.813 86.192 235.581 86.192C236.269 86.192 236.869 86.088 237.381 85.88C237.909 85.672 238.389 85.36 238.821 84.944L240.813 87.104C240.221 87.776 239.477 88.296 238.581 88.664C237.685 89.016 236.653 89.192 235.485 89.192ZM253.839 89L249.519 82.88L252.567 81.08L258.255 89H253.839ZM244.695 89V76.088H248.439V89H244.695ZM247.335 84.104V81.104H251.847V84.104H247.335ZM252.927 82.976L249.423 82.592L253.959 76.088H257.943L252.927 82.976ZM262.837 89V78.296L263.677 79.16H258.469V76.088H270.925V79.16H265.717L266.557 78.296V89H262.837ZM278.793 89.192C277.321 89.192 276.025 88.904 274.905 88.328C273.801 87.752 272.945 86.968 272.337 85.976C271.729 84.968 271.425 83.824 271.425 82.544C271.425 81.248 271.721 80.104 272.313 79.112C272.921 78.104 273.745 77.32 274.785 76.76C275.825 76.184 277.001 75.896 278.313 75.896C279.577 75.896 280.713 76.168 281.721 76.712C282.745 77.24 283.553 78.008 284.145 79.016C284.737 80.008 285.033 81.2 285.033 82.592C285.033 82.736 285.025 82.904 285.009 83.096C284.993 83.272 284.977 83.44 284.961 83.6H274.473V81.416H282.993L281.553 82.064C281.553 81.392 281.417 80.808 281.145 80.312C280.873 79.816 280.497 79.432 280.017 79.16C279.537 78.872 278.977 78.728 278.337 78.728C277.697 78.728 277.129 78.872 276.633 79.16C276.153 79.432 275.777 79.824 275.505 80.336C275.233 80.832 275.097 81.424 275.097 82.112V82.688C275.097 83.392 275.249 84.016 275.553 84.56C275.873 85.088 276.313 85.496 276.873 85.784C277.449 86.056 278.121 86.192 278.889 86.192C279.577 86.192 280.177 86.088 280.689 85.88C281.217 85.672 281.697 85.36 282.129 84.944L284.121 87.104C283.529 87.776 282.785 88.296 281.889 88.664C280.993 89.016 279.961 89.192 278.793 89.192ZM288.003 89V76.088H300.843V89H297.099V78.32L297.939 79.16H290.883L291.723 78.32V89H288.003Z" fill="white"/>
<path d="M133 71.5L180.5 47L308.5 71.5" stroke="#FC724D" stroke-width="5"/>
</svg>
